<?xml version="1.0" encoding="UTF-8"?>
<svg width="170px" height="43px" viewBox="0 0 170 43" version="1.1" xmlns="http://www.w3.org/2000/svg" xmlns:xlink="http://www.w3.org/1999/xlink">
    <!-- Generator: Sketch 52.2 (67145) - http://www.bohemiancoding.com/sketch -->
    <title>Group 47</title>
    <desc>Created with Sketch.</desc>
    <defs>
        <polygon id="path-1" points="0.202502841 0.210809659 4.5814517 0.210809659 4.5814517 16.7886591 0.202502841 16.7886591"></polygon>
        <polygon id="path-3" points="0.00818607955 0.210809659 4.38713494 0.210809659 4.38713494 16.7886591 0.00818607955 16.7886591"></polygon>
        <polygon id="path-5" points="0.0139090909 0.192360795 11.8106534 0.192360795 11.8106534 16.7702585 0.0139090909 16.7702585"></polygon>
        <polygon id="path-7" points="0.0836960227 0.0562883523 11.8805852 0.0562883523 11.8805852 15.6960227 0.0836960227 15.6960227"></polygon>
    </defs>
    <g id="Symbols" stroke="none" stroke-width="1" fill="none" fill-rule="evenodd">
        <g id="Desktop-/-Header_1500px" transform="translate(-150.000000, -64.000000)">
            <g id="Group-47" transform="translate(150.000000, 64.000000)">
                <path d="M3.65862216,15.027179 C3.96940341,14.5980739 4.54025568,14.4527045 5.01741477,14.6806591 C5.49481534,14.9088551 5.74257102,15.4451761 5.60203125,15.9556591 L5.60203125,15.957108 L5.59696023,15.9730455 C5.59333807,15.9853608 5.58826705,16.0075767 5.58102273,16.0372784 C5.56605114,16.0961989 5.5440767,16.1850625 5.51799716,16.3009716 C5.46269886,16.5315824 5.39098011,16.8694091 5.31950284,17.2738835 C5.17292614,18.0854886 5.03214489,19.1827614 5.03214489,20.2764119 C5.03214489,20.8859006 5.07536932,21.497321 5.18137784,22.0471648 C5.28617898,22.5996648 5.4527983,23.0881733 5.67350852,23.4738125 C5.8203267,23.7292955 5.99153409,23.9413125 6.18761364,24.1139688 C6.44792614,24.3421648 6.75846591,24.5121648 7.1962642,24.6133437 C7.47372159,24.6763693 7.7265483,24.7034148 7.9559517,24.7034148 C8.22471591,24.7034148 8.4628125,24.6676761 8.68955966,24.6022358 C8.91413352,24.5370369 9.12494318,24.4433438 9.32971591,24.3211563 C9.73660511,24.0772642 10.120071,23.7058722 10.4653835,23.2521364 C10.6921307,22.9476335 10.9055966,22.6071506 11.092983,22.2519375 C11.3458097,21.7784006 11.560483,21.2729886 11.7367614,20.7931733 C11.9722017,20.1508438 12.144858,19.5514972 12.2658381,19.1040398 C12.4112074,18.5626477 12.9390767,18.2185426 13.4927841,18.3083722 C14.0474574,18.3960284 14.4446875,18.8857443 14.4149858,19.446696 L14.4149858,19.457804 C14.4149858,19.4701193 14.4137784,19.4875057 14.412571,19.5131023 C14.4113636,19.5626051 14.4101562,19.6427756 14.4101562,19.7437131 C14.4101562,20.0532869 14.4248864,20.5772926 14.5014347,21.173017 C14.5753267,21.7660852 14.7134517,22.42725 14.9353693,22.9956875 C15.0821875,23.3791534 15.2671591,23.7193949 15.4767614,23.9821222 C15.5975,24.1349773 15.7221023,24.2619943 15.862642,24.3655881 C16.0181534,24.4851193 16.1845312,24.573983 16.3806108,24.6382159 L16.3818182,24.6382159 C16.8010227,24.7775483 17.2216761,24.8417812 17.6544034,24.8417812 C18.078679,24.8417812 18.5176847,24.7799631 18.9665909,24.6604318 C19.4152557,24.5430739 19.8764773,24.3655881 20.3364915,24.1410142 C20.6373722,23.9970938 20.9370455,23.8278182 21.2355114,23.6442955 C20.8778835,22.7092955 20.6779403,21.6576619 20.6779403,20.5562841 C20.6779403,19.7647216 20.7815341,18.9497358 21.015767,18.1494801 C21.2490341,17.3492244 21.6139062,16.5624915 22.1330824,15.8361278 C22.7189062,15.0124489 23.3774148,14.4007869 24.0764915,13.9926903 C24.7731534,13.5833864 25.5118324,13.3834432 26.2183949,13.3846506 C26.9471733,13.3834432 27.6353835,13.5969091 28.2011648,13.9605739 C28.7698438,14.3281023 29.2235795,14.8484858 29.4998295,15.4685994 C29.6809375,15.8805597 29.7833239,16.3417813 29.7833239,16.8138693 C29.7833239,17.1714972 29.7241619,17.5390256 29.6070455,17.8993097 C29.4872727,18.256696 29.3061648,18.6094943 29.070483,18.9386278 C28.4059375,19.8685568 27.4810795,21.034892 26.3751136,22.1942244 C25.6943892,22.9029602 24.9458097,23.6109716 24.1443466,24.2583722 C24.1849148,24.2989403 24.224517,24.334679 24.2650852,24.3667955 C24.5314347,24.5850909 24.8175852,24.7406023 25.1418892,24.8514403 C25.4661932,24.9574489 25.8313068,25.0166108 26.2430256,25.0166108 C26.6994176,25.0166108 27.2123153,24.9463409 27.7795455,24.7898636 C28.3467756,24.6331449 28.9644744,24.3938409 29.622983,24.0695369 C30.9412074,23.4185142 32.417358,22.4209716 33.9884091,21.0868097 C35.1240767,20.1235568 36.2672301,19.170446 37.5545455,18.0879034 L37.5545455,0.941326705 L0.00120738636,0.941326705 L0.00120738636,17.545304 C0.700284091,17.257946 1.55100852,16.8459858 2.29355114,16.318358 C2.83856534,15.9334432 3.31934659,15.4932301 3.65862216,15.027179" id="Fill-1" fill="#FF3126"></path>
                <path d="M27.2860142,17.6683366 C27.4067528,17.5019588 27.4784716,17.3488622 27.5289403,17.2083224 C27.5745795,17.0653679 27.5929318,16.9371435 27.5929318,16.814956 C27.5919659,16.6534077 27.5598494,16.4981378 27.4956165,16.3551832 C27.431625,16.2119872 27.3391392,16.0774844 27.2169517,15.9615753 C26.9740256,15.7273423 26.6299205,15.5732798 26.2182017,15.5732798 C25.9185284,15.5756946 25.5744233,15.6534503 25.1798494,15.8816463 C24.7913125,16.1096009 24.3535142,16.4942741 23.91475,17.1071435 C23.5508438,17.6188338 23.2895653,18.1776122 23.1193239,18.7631946 C22.947875,19.3466037 22.8677045,19.9580241 22.8677045,20.5561634 C22.8677045,21.160581 22.947875,21.7497855 23.0959006,22.2851406 C24.8444375,20.8077827 26.3662273,18.9616889 27.2860142,17.6683366" id="Fill-3" fill="#FF3126"></path>
                <path d="M31.754044,25.4019844 C30.5775668,26.0950241 29.4467287,26.6018849 28.3617713,26.9013168 C27.6342003,27.1010185 26.9276378,27.2072685 26.2444986,27.2072685 C25.6217287,27.2082344 25.0175526,27.1184048 24.450081,26.9283622 C23.8816435,26.7385611 23.3503935,26.4499957 22.8816861,26.0665298 C22.6856065,25.9049815 22.5069134,25.7274957 22.3390866,25.5376946 C21.4511747,26.0776378 20.5115866,26.5178509 19.5263594,26.7779219 C18.9197685,26.9382628 18.2919276,27.0307486 17.6558764,27.0307486 C17.0072685,27.0307486 16.3461037,26.9360895 15.6974957,26.7214162 C15.2068139,26.5610753 14.7740866,26.3121122 14.4101804,26.0073679 C14.042652,25.7040724 13.7432202,25.352723 13.4988452,24.9815724 C13.2141435,24.5473963 13.0006776,24.0873821 12.8330923,23.6261605 C12.6529503,23.9371832 12.4580781,24.2414446 12.2388168,24.5362884 C11.8145412,25.1011037 11.3100952,25.6287315 10.6923963,26.0469702 C10.3383906,26.2872401 9.94888778,26.489598 9.52340483,26.6340014 C9.03996733,26.8003793 8.51089063,26.8928651 7.95597585,26.8928651 C7.55150142,26.8928651 7.1373679,26.845777 6.70826278,26.7458054 C6.06182812,26.5992287 5.48131676,26.3304645 4.99908665,25.9680071 C4.51444176,25.6041009 4.13218324,25.156402 3.83758097,24.6681349 C3.64150142,24.343831 3.48357528,24.0023821 3.35535085,23.6522401 C3.18510938,23.1847401 3.06678551,22.7025099 2.98782244,22.2156918 C2.88181392,21.5668423 2.84100426,20.9134048 2.84100426,20.2771122 C2.84100426,19.6642429 2.88060653,19.0685185 2.93735369,18.5160185 C2.45150142,18.8108622 1.96806392,19.0636889 1.51432812,19.2744986 C0.935990057,19.5410895 0.411984375,19.7429645 2.41477273e-05,19.8861605 L2.41477273e-05,38.4975384 L37.555777,38.4975384 L37.555777,20.9440724 C36.8110611,21.5694986 36.1030497,22.1613594 35.4051804,22.7556349 C34.1487741,23.8248963 32.9302798,24.7062884 31.754044,25.4019844" id="Fill-5" fill="#FF3126"></path>
                <path d="M47.6788182,1.17973722 L47.6788182,10.8979901 C47.6788182,14.3610156 49.9578807,16.8185298 54.0463324,16.8185298 C58.1125682,16.8185298 60.4138466,14.3610156 60.4138466,10.8979901 L60.4138466,1.17973722 L57.3528807,1.17973722 L57.3528807,10.9651207 C57.3528807,12.6861293 55.9226108,13.8698509 54.0463324,13.8698509 C52.1468722,13.8698509 50.7168438,12.6861293 50.7168438,10.9651207 L50.7168438,1.17973722 L47.6788182,1.17973722 Z" id="Fill-7" fill="#1E1E1E"></path>
                <path d="M63.2287472,5.20100994 L63.2287472,16.818723 L66.3568437,16.818723 L66.3568437,10.4070185 C66.3568437,9.08903551 67.1829375,7.90434801 68.7023125,7.90434801 C69.8640597,7.90434801 70.7580085,8.61984517 70.7580085,9.98201847 L70.7580085,16.818723 L73.8631648,16.818723 L73.8631648,9.82554119 C73.8631648,6.13914915 71.6519574,4.97764347 69.5071562,4.97764347 C67.0264602,4.97764347 66.1112614,6.74260085 66.1112614,6.74260085 L65.6191307,5.20100994 L63.2287472,5.20100994 Z" id="Fill-9" fill="#1E1E1E"></path>
                <g id="Group-13" transform="translate(75.582386, 0.030668)">
                    <mask id="mask-2" fill="white">
                        <use xlink:href="#path-1"></use>
                    </mask>
                    <g id="Clip-12"></g>
                    <path d="M2.81649432,0.210761364 C1.8561392,0.210761364 1.14064205,1.0146392 1.14064205,1.93080398 C1.14064205,2.86894318 1.8561392,3.65157102 2.81649432,3.65157102 C3.75463352,3.65157102 4.55947727,2.86894318 4.55947727,1.93080398 C4.55947727,1.0146392 3.77684943,0.210761364 2.81649432,0.210761364 Z M0.202502841,5.17022159 L0.202502841,7.33796307 L1.56564205,7.82912784 L1.56564205,16.7886591 L4.5814517,16.7886591 L4.5814517,5.17022159 L0.202502841,5.17022159 Z" id="Fill-11" fill="#1E1E1E" mask="url(#mask-2)"></path>
                </g>
                <polygon id="Fill-14" fill="#1E1E1E" points="81.6160341 5.20100994 85.6602955 16.818723 88.6089744 16.818723 92.8316875 5.20100994 89.6594006 5.20100994 87.178946 13.4008537 87.1347557 13.4008537 84.7661051 5.20100994"></polygon>
                <path d="M96.6074261,10.0494389 C96.8981648,8.48587358 97.947625,7.6590554 99.3998693,7.6590554 C101.098662,7.6590554 101.589827,8.77564631 101.656957,10.0494389 L96.6074261,10.0494389 Z M93.4573551,11.1218395 C93.4573551,14.6739702 96.0271563,17.0423793 99.5341307,17.0423793 C101.098662,17.0423793 102.751574,16.7076918 103.91308,16.0371094 L102.885835,13.7800213 C102.126148,14.1156747 100.919244,14.4725781 99.6012614,14.4725781 C98.2161477,14.4725781 96.7858778,13.847152 96.6525824,12.1942401 L104.449401,12.1942401 C104.449401,12.1942401 104.561688,11.6352202 104.561688,10.8533168 C104.561688,7.77037642 102.818705,4.97793324 99.2214176,4.97793324 C95.780608,4.97793324 93.4573551,7.54676847 93.4573551,11.1218395 Z" id="Fill-16" fill="#1E1E1E"></path>
                <path d="M106.616587,5.31278977 L106.616587,16.8191818 L109.699768,16.8191818 L109.699768,11.6353892 C109.699768,9.13344318 111.107822,8.37375568 113.073447,8.37375568 L113.453291,8.37375568 L113.453291,5.20146875 C111.397595,5.20146875 110.191658,5.67065909 109.476161,7.14487784 L109.074342,5.31278977 L106.616587,5.31278977 Z" id="Fill-18" fill="#1E1E1E"></path>
                <path d="M118.971795,17.0423551 C121.920474,17.0423551 123.797719,15.7243722 123.797719,13.46825 C123.797719,9.17840625 117.653571,10.2727813 117.653571,8.48560795 C117.653571,7.97174432 118.144736,7.39026705 119.440744,7.39026705 C120.938386,7.39026705 122.456795,8.06084943 122.456795,8.06084943 L123.37296,5.89383239 C122.546866,5.51398864 120.960119,4.97766761 119.240318,4.97766761 C116.51404,4.97766761 114.772023,6.34080682 114.772023,8.53003977 C114.772023,12.8647983 120.938386,11.7030511 120.938386,13.5344148 C120.938386,14.0485199 120.42404,14.6068153 118.837293,14.6068153 C117.653571,14.6068153 116.446909,14.1827813 115.643031,13.8249119 L114.726866,16.0151108 C115.441639,16.3717727 116.871909,17.0423551 118.971795,17.0423551" id="Fill-20" fill="#1E1E1E"></path>
                <g id="Group-24" transform="translate(125.085227, 0.030668)">
                    <mask id="mask-4" fill="white">
                        <use xlink:href="#path-3"></use>
                    </mask>
                    <g id="Clip-23"></g>
                    <path d="M2.62217756,0.210761364 C1.66182244,0.210761364 0.946325284,1.0146392 0.946325284,1.93080398 C0.946325284,2.86894318 1.66182244,3.65157102 2.62217756,3.65157102 C3.56031676,3.65157102 4.36516051,2.86894318 4.36516051,1.93080398 C4.36516051,1.0146392 3.5832571,0.210761364 2.62217756,0.210761364 Z M0.00818607955,5.17022159 L0.00818607955,7.33796307 L1.37108381,7.82912784 L1.37108381,16.7886591 L4.38713494,16.7886591 L4.38713494,5.17022159 L0.00818607955,5.17022159 Z" id="Fill-22" fill="#1E1E1E" mask="url(#mask-4)"></path>
                </g>
                <path d="M137.694301,7.65883807 C139.615494,7.65883807 140.799216,9.17821307 140.799216,11.0105426 C140.799216,12.8416648 139.615494,14.3612812 137.716276,14.3612812 C135.996474,14.3612812 134.700466,13.110429 134.700466,10.9876023 C134.700466,8.90969034 135.951318,7.65883807 137.694301,7.65883807 Z M140.46477,0.464505682 L140.46477,6.36282955 C139.771972,5.44690625 138.475963,4.97771591 137.135764,4.97771591 C133.851432,4.97771591 131.66244,7.83728977 131.66244,11.0105426 C131.66244,14.1828295 133.829216,17.0424034 137.179955,17.0424034 C138.543335,17.0424034 139.883051,16.5734545 140.687895,15.3445767 L141.06798,16.8190369 L143.458364,16.8190369 L143.458364,0.464505682 L140.46477,0.464505682 Z" id="Fill-25" fill="#1E1E1E"></path>
                <path d="M152.596322,11.7026165 L152.596322,12.8643636 C152.596322,13.9367642 151.256124,14.741608 150.093652,14.741608 C149.088382,14.741608 148.195158,14.1603722 148.195158,13.1328864 C148.195158,11.7697472 149.736749,11.5241648 150.742018,11.5241648 C151.34547,11.5241648 152.016053,11.6135114 152.596322,11.7026165 M146.4302,5.73692045 L146.988496,7.90490341 C147.859504,7.70351136 149.491408,7.45792898 150.496678,7.45792898 C151.434575,7.45792898 152.596322,7.68153693 152.596322,9.37936364 L152.596322,9.71405114 C151.858609,9.62494602 150.965626,9.55781534 150.183964,9.55781534 C147.524817,9.55781534 145.379774,10.7644773 145.379774,13.2661818 C145.379774,15.7239375 147.457686,17.0419205 149.580513,17.0419205 C151.189234,17.0419205 152.551166,16.1938523 153.199774,15.054321 L153.199774,15.2999034 C153.199774,16.5727301 154.428652,16.8192784 155.165399,16.8192784 C155.992217,16.8192784 156.931081,16.5055994 157.020428,16.4394347 L157.020428,14.0038949 C156.550513,14.0480852 156.170669,14.0710256 155.992217,14.0710256 C155.657288,14.0710256 155.500811,13.981679 155.500811,13.6692074 L155.500811,8.84304261 C155.500811,6.31839773 153.870115,4.97819886 150.987601,4.97819886 C149.424036,4.97819886 147.479661,5.38001705 146.4302,5.73692045" id="Fill-27" fill="#1E1E1E"></path>
                <g id="Group-31" transform="translate(158.167614, 0.272145)">
                    <mask id="mask-6" fill="white">
                        <use xlink:href="#path-5"></use>
                    </mask>
                    <g id="Clip-30"></g>
                    <path d="M6.04649432,7.38669318 C7.96792898,7.38669318 9.15165057,8.90606818 9.15165057,10.7383977 C9.15165057,12.5695199 7.96792898,14.0891364 6.06871023,14.0891364 C4.34866761,14.0891364 3.05290057,12.8382841 3.05290057,10.7154574 C3.05290057,8.63754545 4.30351136,7.38669318 6.04649432,7.38669318 Z M8.81696307,0.192360795 L8.81696307,6.09068466 C8.12416477,5.17476136 6.82839773,4.70557102 5.48819886,4.70557102 C2.20386648,4.70557102 0.0139090909,7.56514489 0.0139090909,10.7383977 C0.0139090909,13.9106847 2.18165057,16.7702585 5.5323892,16.7702585 C6.89552841,16.7702585 8.2354858,16.3013097 9.04032955,15.0724318 L9.42041477,16.546892 L11.8107983,16.546892 L11.8107983,0.192360795 L8.81696307,0.192360795 Z" id="Fill-29" fill="#1E1E1E" mask="url(#mask-6)"></path>
                </g>
                <polygon id="Fill-32" fill="#1E1E1E" points="47.7679474 22.8511392 47.7679474 38.4911392 58.9836009 38.4911392 58.9836009 35.5861676 50.896044 35.5861676 50.896044 32.2576449 57.6656179 32.2576449 57.6656179 29.4422614 50.896044 29.4422614 50.896044 25.7558693 58.8273651 25.7558693 58.8273651 22.8511392"></polygon>
                <path d="M61.0615852,26.8727741 L61.0615852,33.8437401 C61.0615852,36.9488963 62.6029347,38.7138537 65.6189858,38.7138537 C67.0712301,38.7138537 68.1658466,38.1775327 68.9255341,37.1722628 L69.3053778,38.4902457 L71.6960028,38.4902457 L71.6960028,26.8727741 L68.5686307,26.8727741 L68.5686307,33.7314531 C68.5686307,35.1395071 67.5633608,35.7651747 66.334483,35.7651747 C64.8370824,35.7651747 64.1445256,35.0494361 64.1445256,33.6875043 L64.1445256,26.8727741 L61.0615852,26.8727741 Z" id="Fill-34" fill="#1E1E1E"></path>
                <path d="M74.4666406,26.984554 L74.4666406,38.4907045 L77.5498224,38.4907045 L77.5498224,33.3071534 C77.5498224,30.8052074 78.9569105,30.0455199 80.9235014,30.0455199 L81.3033452,30.0455199 L81.3033452,26.873233 C79.2476491,26.873233 78.0417116,27.3421818 77.3262145,28.8168835 L76.9243963,26.984554 L74.4666406,26.984554 Z" id="Fill-36" fill="#1E1E1E"></path>
                <path d="M88.4527386,29.3304574 C90.1727812,29.3304574 91.4245994,30.6935966 91.4245994,32.6821619 C91.4245994,34.6035966 90.1505653,36.0329006 88.4527386,36.0329006 C86.6875398,36.0329006 85.4808778,34.6035966 85.4808778,32.6821619 C85.4808778,30.6935966 86.6875398,29.3304574 88.4527386,29.3304574 M82.3979375,32.6821619 C82.3979375,36.2565085 85.1010341,38.7137813 88.4527386,38.7137813 C91.7812614,38.7137813 94.5075398,36.2565085 94.5075398,32.6821619 C94.5075398,29.0846335 91.8042017,26.6490937 88.4527386,26.6490937 C85.0790597,26.6490937 82.3979375,29.1068494 82.3979375,32.6821619" id="Fill-38" fill="#1E1E1E"></path>
                <g id="Group-42" transform="translate(96.590909, 26.593168)">
                    <mask id="mask-8" fill="white">
                        <use xlink:href="#path-7"></use>
                    </mask>
                    <g id="Clip-41"></g>
                    <path d="M6.38407955,0.0562883523 C5.28946307,0.0562883523 3.88140909,0.681714489 3.07753125,1.86640199 L2.54121023,0.279896307 L0.0836960227,0.279896307 L0.0836960227,15.6960469 L3.07753125,15.6960469 L3.07753125,10.4231491 C3.83721875,11.6969418 5.5802017,12.1209759 6.36210511,12.1209759 C9.95818466,12.1209759 11.8805852,9.30559233 11.8805852,6.13306392 C11.8805852,2.67027983 9.80194886,0.0562883523 6.38407955,0.0562883523 M5.84775852,2.73741051 C7.47869602,2.73741051 8.84159375,4.05539347 8.84159375,6.08887358 C8.84159375,8.07671449 7.47869602,9.43961222 5.84775852,9.43961222 C3.94853977,9.43961222 2.76481818,8.05449858 2.76481818,6.08887358 C2.76481818,3.94431392 4.19508807,2.73741051 5.84775852,2.73741051" id="Fill-40" fill="#1E1E1E" mask="url(#mask-8)"></path>
                </g>
                <path d="M113.229973,31.7209616 C113.520712,30.1573963 114.56993,29.3305781 116.022416,29.3305781 C117.720243,29.3305781 118.212374,30.447169 118.279504,31.7209616 L113.229973,31.7209616 Z M110.079661,32.7933622 C110.079661,36.3454929 112.648737,38.7141435 116.156678,38.7141435 C117.720243,38.7141435 119.374121,38.3792145 120.535626,37.7088736 L119.508382,35.4525099 C118.748453,35.7874389 117.541791,36.1441009 116.223808,36.1441009 C114.838695,36.1441009 113.408425,35.5189162 113.275129,33.8660043 L121.071947,33.8660043 C121.071947,33.8660043 121.184234,33.3074673 121.184234,32.5248395 C121.184234,29.4418991 119.44101,26.649456 115.843964,26.649456 C112.403155,26.649456 110.079661,29.2182912 110.079661,32.7933622 Z" id="Fill-43" fill="#1E1E1E"></path>
                <path d="M129.606455,33.3745014 L129.606455,34.5362486 C129.606455,35.6084077 128.266497,36.4122855 127.104026,36.4122855 C126.098756,36.4122855 125.20529,35.8320156 125.20529,34.8047713 C125.20529,33.4413906 126.746881,33.1960497 127.752151,33.1960497 C128.355602,33.1960497 129.025219,33.2851548 129.606455,33.3745014 M123.440574,27.4088054 L123.998628,29.5758224 C124.869878,29.3751548 126.50154,29.1295724 127.50681,29.1295724 C128.444707,29.1295724 129.606455,29.3531804 129.606455,31.0510071 L129.606455,31.3859361 C128.868741,31.296831 127.975759,31.2294588 127.194097,31.2294588 C124.534949,31.2294588 122.389906,32.4361207 122.389906,34.9380668 C122.389906,37.395581 124.467818,38.7135639 126.590645,38.7135639 C128.199366,38.7135639 129.561298,37.8647713 130.209906,36.7252401 L130.209906,36.9715469 C130.209906,38.2446151 131.438784,38.4909219 132.175531,38.4909219 C133.002349,38.4909219 133.940489,38.1774844 134.03056,38.1110781 L134.03056,35.6755384 C133.560645,35.7197287 133.181767,35.7429105 133.002349,35.7429105 C132.667662,35.7429105 132.511185,35.6535639 132.511185,35.3401264 L132.511185,30.5146861 C132.511185,27.9900412 130.880247,26.6488764 127.997974,26.6488764 C126.434168,26.6488764 124.490034,27.051902 123.440574,27.4088054" id="Fill-45" fill="#1E1E1E"></path>
            </g>
        </g>
    </g>
</svg>