<svg xmlns="http://www.w3.org/2000/svg" width="1781" height="400" fill="none" viewBox="0 0 1781 400">
  <g clip-path="url(#clip0)">
    <path fill="#000" d="M543.5 234.359h-88.734v72.563h103.078V329H427.766V124.25h128.672v22.219H454.766v65.812H543.5v22.078zM681.312 329c-1.5-3-2.718-8.344-3.656-16.031-12.094 12.562-26.531 18.843-43.312 18.843-15 0-27.328-4.218-36.985-12.656-9.562-8.531-14.343-19.312-14.343-32.344 0-15.843 6-28.124 18-36.843 12.093-8.813 29.062-13.219 50.906-13.219h25.312v-11.953c0-9.094-2.718-16.313-8.156-21.656-5.437-5.438-13.453-8.157-24.047-8.157-9.281 0-17.062 2.344-23.343 7.032-6.282 4.687-9.422 10.359-9.422 17.015h-26.157c0-7.593 2.672-14.906 8.016-21.937 5.437-7.125 12.75-12.75 21.937-16.875 9.282-4.125 19.454-6.188 30.516-6.188 17.531 0 31.266 4.407 41.203 13.219 9.938 8.719 15.094 20.766 15.469 36.141v70.031c0 13.969 1.781 25.078 5.344 33.328V329h-27.282zm-43.171-19.828c8.156 0 15.89-2.11 23.203-6.328 7.312-4.219 12.609-9.703 15.89-16.453v-31.219h-20.39c-31.875 0-47.813 9.328-47.813 27.984 0 8.156 2.719 14.532 8.157 19.125 5.437 4.594 12.421 6.891 20.953 6.891zm194.484-20.531c0-7.032-2.672-12.469-8.016-16.313-5.25-3.937-14.484-7.312-27.703-10.125-13.125-2.812-23.578-6.187-31.359-10.125-7.688-3.937-13.406-8.625-17.156-14.062-3.657-5.438-5.485-11.907-5.485-19.407 0-12.468 5.25-23.015 15.75-31.64 10.594-8.625 24.094-12.938 40.5-12.938 17.25 0 31.219 4.453 41.906 13.36 10.782 8.906 16.172 20.297 16.172 34.171h-26.156c0-7.124-3.047-13.265-9.14-18.421-6-5.157-13.594-7.735-22.782-7.735-9.468 0-16.875 2.063-22.218 6.188-5.344 4.125-8.016 9.515-8.016 16.172 0 6.281 2.484 11.015 7.453 14.203 4.969 3.187 13.922 6.234 26.859 9.14 13.032 2.907 23.578 6.375 31.641 10.407 8.063 4.031 14.016 8.906 17.859 14.625 3.938 5.625 5.907 12.515 5.907 20.671 0 13.594-5.438 24.516-16.313 32.766-10.875 8.156-24.984 12.234-42.328 12.234-12.188 0-22.969-2.156-32.344-6.468-9.375-4.313-16.734-10.313-22.078-18-5.25-7.782-7.875-16.172-7.875-25.172h26.016c.469 8.719 3.937 15.656 10.406 20.812 6.563 5.063 15.187 7.594 25.875 7.594 9.844 0 17.719-1.969 23.625-5.906 6-4.031 9-9.375 9-16.031zm109.687 2.25l35.438-114.047h27.84l-61.168 175.64c-9.469 25.313-24.516 37.969-45.141 37.969l-4.922-.422-9.703-1.828v-21.094l7.032.563c8.812 0 15.656-1.781 20.531-5.344 4.969-3.562 9.047-10.078 12.234-19.547l5.766-15.469-54.281-150.468h28.406l37.968 114.047zm232.168-144.422h-65.81V329h-26.86V146.469h-65.67V124.25h158.34v22.219zm89.16 53.719c-3.94-.657-8.2-.985-12.8-.985-17.06 0-28.64 7.266-34.73 21.797v108h-26.02V176.844h25.32l.42 17.578c8.53-13.594 20.62-20.391 36.28-20.391 5.06 0 8.91.657 11.53 1.969v24.188zM1376 329c-1.5-3-2.72-8.344-3.66-16.031-12.09 12.562-26.53 18.843-43.31 18.843-15 0-27.33-4.218-36.98-12.656-9.57-8.531-14.35-19.312-14.35-32.344 0-15.843 6-28.124 18-36.843 12.1-8.813 29.07-13.219 50.91-13.219h25.31v-11.953c0-9.094-2.72-16.313-8.15-21.656-5.44-5.438-13.46-8.157-24.05-8.157-9.28 0-17.06 2.344-23.34 7.032-6.29 4.687-9.43 10.359-9.43 17.015h-26.15c0-7.593 2.67-14.906 8.01-21.937 5.44-7.125 12.75-12.75 21.94-16.875 9.28-4.125 19.45-6.188 30.52-6.188 17.53 0 31.26 4.407 41.2 13.219 9.94 8.719 15.09 20.766 15.47 36.141v70.031c0 13.969 1.78 25.078 5.34 33.328V329H1376zm-43.17-19.828c8.15 0 15.89-2.11 23.2-6.328 7.31-4.219 12.61-9.703 15.89-16.453v-31.219h-20.39c-31.87 0-47.81 9.328-47.81 27.984 0 8.156 2.72 14.532 8.16 19.125 5.43 4.594 12.42 6.891 20.95 6.891zm153.84-15.469l37.69-116.859h26.58L1496.38 329h-19.83l-55.13-152.156H1448l38.67 116.859zm150.47 38.109c-20.62 0-37.41-6.75-50.34-20.25-12.94-13.593-19.41-31.734-19.41-54.421v-4.782c0-15.093 2.86-28.547 8.58-40.359 5.81-11.906 13.87-21.188 24.19-27.844 10.4-6.75 21.65-10.125 33.75-10.125 19.78 0 35.15 6.516 46.12 19.547 10.97 13.031 16.45 31.688 16.45 55.969v10.828h-103.07c.37 15 4.73 27.141 13.07 36.422 8.44 9.187 19.13 13.781 32.07 13.781 9.18 0 16.97-1.875 23.34-5.625 6.38-3.75 11.95-8.719 16.73-14.906l15.9 12.375c-12.75 19.594-31.88 29.39-57.38 29.39zm-3.23-136.406c-10.5 0-19.32 3.844-26.44 11.532-7.13 7.593-11.53 18.281-13.22 32.062h76.22v-1.969c-.75-13.219-4.31-23.437-10.69-30.656-6.37-7.313-15-10.969-25.87-10.969zM1754.98 329h-26.01V113h26.01v216zM19.92 77.938l15.387-16.185c9.012-9.011 24.186-5.885 24.186-5.885l45.029 6.161 22.806-22.316c12.016-11.8 22.867 6.254 18.147 12.476L133.766 65.8l48.493 8.982 16.461-19.19c17.593-21.026 30.683-2.083 22.745 9.074l-10.637 13.457 72.863 9.502c62.65-60.29 88.227-85.299 104.711-70.44 16.59 14.952-12.756 44.758-69.828 103.546l10.361 75.07 15.265-12.721c9.011-7.51 25.012 4.538 8.491 20.2l-20.997 19.802 8.858 49.137 13.12-10.085c11.586-9.226 25.655 2.975 9.993 19.71l-20.844 20.998c-.859.643 6.805 43.098 6.805 43.098 4.72 20.812-7.02 28.416-7.02 28.416l-14.315 12.476-54.379-153.604c-4.505-13.517-15.925-28.196-35.006-26.453-10.084 1.072-35.558 18.269-38.991 22.346l-58.977 56.708c-1.501 1.073 9.074 73.721 9.074 73.721 0 2.146-18.699 26.668-18.699 26.668L93.947 319.7l-18.453 8.583 10.79-16.798L19 273.505l25.228-18.453c12.015 2.79 75.008 9.871 76.295 9.227 0 0 51.297-50.873 54.226-53.95 16.95-17.808 22.653-24.462 25.228-33.258 2.576-8.804-1.813-21.706-28.416-38.041C134.872 116.501 19.92 77.938 19.92 77.938z"/>
  </g>
  <defs>
    <clipPath id="clip0">
      <path fill="#fff" d="M0 0h1781v400H0z"/>
    </clipPath>
  </defs>
</svg>
